<svg width="1415" height="796" viewBox="0 0 1415 796" fill="none" xmlns="http://www.w3.org/2000/svg">
<g clip-path="url(#clip0_94_5657)">
<path d="M397.531 333.272C358.948 333.272 328.764 361.963 328.764 400.429C328.764 438.894 358.948 467.585 397.35 467.585C420.343 467.585 439.348 457.418 451.524 442.092V440.312L437.535 429.15H435.934C427.141 440.523 413.333 447.673 397.743 447.673C371.547 447.673 351.152 427.943 351.152 400.459C351.152 372.975 371.547 353.244 397.743 353.244C413.333 353.244 427.141 360.424 435.934 371.768H437.535L451.524 360.605V358.825C439.136 343.288 419.92 333.332 397.531 333.332V333.272Z" fill="black"/>
<path d="M471.496 331.703V465.202H493.099V330.497L491.498 329.29L471.496 331.703Z" fill="black"/>
<path d="M567.064 363.17C537.273 363.17 515.488 385.495 515.488 415.574C515.488 447.854 540.294 467.585 569.27 467.585C584.679 467.585 603.261 462.004 613.866 448.639V447.04L602.868 437.084H601.055C593.653 445.863 580.872 450.238 569.874 450.238C553.468 450.238 538.693 440.071 537.092 420.732H616.857C617.25 418.952 617.461 416.539 617.461 413.763C617.461 398.83 611.872 385.857 602.657 376.897C593.653 368.117 581.476 363.14 567.064 363.14V363.17ZM537.273 405.829C539.66 390.081 550.869 380.125 566.671 380.125C575.464 380.125 582.655 383.112 587.851 388.482C592.051 392.675 594.861 398.649 595.858 405.829H537.273Z" fill="black"/>
<path d="M676.621 363.17C663.236 363.17 647.042 367.936 636.829 376.535V378.134L644.836 390.292H646.437C653.84 384.318 664.838 380.336 674.627 380.336C689.825 380.336 700.611 388.904 700.611 401.454V408.031C692.423 404.652 683.027 401.847 672.633 401.847C647.042 401.847 629.85 415.393 629.85 435.515C629.85 455.638 645.652 467.615 669.038 467.615C681.848 467.615 693.632 462.426 702.213 453.858V465.232H721.006V404.441C721.006 376.535 702.998 363.2 676.621 363.2V363.17ZM673.026 451.656C659.822 451.656 651.03 445.079 651.03 435.123C651.03 424.353 660.426 416.991 674.839 416.991C685.232 416.991 695.022 420.974 700.642 423.78V428.757L700.853 429.964C700.46 442.907 687.045 451.686 673.056 451.686L673.026 451.656Z" fill="black"/>
<path d="M794.789 363.17C783.006 363.17 773.791 369.143 767.808 378.707V365.553H748.622V465.202H770.407V409.992C770.407 394.063 779.018 382.297 792.614 382.297C796.814 382.297 800.409 382.689 803.612 384.68L805.425 383.896L810.833 367.967L809.836 366.368C805.244 364.165 800.44 363.17 794.85 363.17H794.789Z" fill="black"/>
<path d="M942.325 365.583L919.544 434.52L894.133 365.583H882.561L857.151 435.304L835.155 365.583H814.156L813.159 367.152L849.175 465.202H862.771L888.151 397.864L913.531 465.202H927.339L963.928 367.152L962.931 365.583H942.325Z" fill="black"/>
<path d="M1016.11 363.17C1002.72 363.17 986.529 367.936 976.316 376.535V378.134L984.323 390.292H985.925C993.327 384.318 1004.33 380.336 1014.11 380.336C1029.31 380.336 1040.1 388.904 1040.1 401.454V408.031C1031.91 404.652 1022.51 401.847 1012.12 401.847C986.529 401.847 969.337 415.393 969.337 435.515C969.337 455.638 985.139 467.615 1008.52 467.615C1021.34 467.615 1033.12 462.426 1041.7 453.858V465.232H1060.49V404.441C1060.49 376.535 1042.49 363.2 1016.11 363.2V363.17ZM1012.51 451.656C999.31 451.656 990.517 445.079 990.517 435.123C990.517 424.353 999.914 416.991 1014.3 416.991C1024.69 416.991 1034.48 420.974 1040.1 423.78V428.757L1040.31 429.964C1039.92 442.907 1026.5 451.686 1012.51 451.686V451.656Z" fill="black"/>
<path d="M1140.26 444.295C1137.27 447.281 1132.46 448.88 1128.87 448.88C1120.26 448.88 1114.67 444.083 1114.67 432.136V382.508H1145.06V365.583H1114.67V334.298L1113.07 333.091L1092.88 335.474V365.553H1075.9V382.478H1092.88V433.494C1092.88 456.604 1107.48 467.585 1125.88 467.585C1134.49 467.585 1142.07 464.779 1147.87 460.224L1148.48 458.444L1142.07 445.079L1140.26 444.295Z" fill="black"/>
<path d="M1208.24 363.17C1178.45 363.17 1156.67 385.495 1156.67 415.574C1156.67 447.854 1181.47 467.585 1210.45 467.585C1225.86 467.585 1244.44 462.004 1255.04 448.639V447.04L1244.05 437.084H1242.23C1234.83 445.863 1222.05 450.238 1211.05 450.238C1194.65 450.238 1179.87 440.071 1178.27 420.732H1258.03C1258.43 418.952 1258.64 416.539 1258.64 413.763C1258.64 398.83 1253.05 385.857 1243.83 376.897C1234.83 368.117 1222.65 363.14 1208.24 363.14V363.17ZM1178.45 405.829C1180.84 390.081 1192.05 380.125 1207.85 380.125C1216.64 380.125 1223.83 383.112 1229.06 388.482C1233.26 392.675 1236.07 398.649 1237.07 405.829H1178.48H1178.45Z" fill="black"/>
<path d="M1341 366.368C1336.41 364.165 1331.61 363.17 1326.02 363.17C1314.23 363.17 1305.02 369.143 1299.04 378.707V365.553H1279.85V465.202H1301.63V409.992C1301.63 394.063 1310.25 382.297 1323.84 382.297C1328.04 382.297 1331.64 382.689 1334.84 384.68L1336.65 383.896L1342.06 367.967L1341.06 366.368H1341Z" fill="black"/>
<path d="M113.759 339.728C120.285 333.212 120.285 322.683 113.759 316.166C107.232 309.65 96.6876 309.65 90.1613 316.166C83.635 322.683 83.635 333.212 90.1613 339.728C96.6876 346.245 107.232 346.245 113.759 339.728Z" fill="black"/>
<path d="M271.296 394.063C270.692 378.797 266.583 363.652 258.938 349.925C248.122 358.101 232.652 357.257 222.802 347.421C212.952 337.586 212.106 322.14 220.294 311.339C206.577 303.706 191.379 299.603 176.091 299C177.058 323.045 186.696 346.788 205.066 365.131C223.437 383.474 247.215 393.128 271.266 394.063H271.296Z" fill="black"/>
<path d="M242.321 344.586C251.532 344.586 258.999 337.13 258.999 327.932C258.999 318.735 251.532 311.279 242.321 311.279C233.11 311.279 225.643 318.735 225.643 327.932C225.643 337.13 233.11 344.586 242.321 344.586Z" fill="black"/>
<path d="M90.1916 456.302C83.6653 462.818 83.6653 473.347 90.1916 479.864C96.7179 486.38 107.263 486.38 113.789 479.864C120.315 473.347 120.315 462.818 113.789 456.302C107.263 449.785 96.7179 449.785 90.1916 456.302Z" fill="black"/>
<path d="M230.537 456.302C224.011 462.818 224.011 473.347 230.537 479.864C237.064 486.38 247.608 486.38 254.135 479.864C260.661 473.347 260.661 462.818 254.135 456.302C247.608 449.785 237.064 449.785 230.537 456.302Z" fill="black"/>
<path d="M176.091 497C191.379 496.397 206.547 492.294 220.294 484.661C212.106 473.89 212.952 458.444 222.802 448.579C232.652 438.743 248.122 437.899 258.908 446.075C266.552 432.348 270.662 417.203 271.296 401.937C247.245 402.902 223.437 412.526 205.066 430.869C186.696 449.212 177.027 472.955 176.091 496.97V497Z" fill="black"/>
<path d="M121.494 347.421C111.614 357.287 96.1441 358.101 85.3576 349.925C77.7134 363.622 73.6043 378.797 73 394.063C97.0808 393.128 120.829 383.474 139.23 365.131C157.57 346.788 167.238 323.045 168.205 299C152.917 299.603 137.749 303.706 124.002 311.369C132.19 322.14 131.344 337.586 121.494 347.421Z" fill="black"/>
<path d="M73 401.967C73.6043 417.233 77.7134 432.378 85.3576 446.105C96.1441 437.929 111.614 438.774 121.494 448.609C131.374 458.444 132.19 473.89 124.002 484.691C137.749 492.324 152.917 496.427 168.205 497.03C167.269 472.985 157.6 449.242 139.23 430.899C120.859 412.557 97.0808 402.902 73 401.967Z" fill="black"/>
</g>
<defs>
<clipPath id="clip0_94_5657">
<rect width="1269" height="198" fill="white" transform="translate(73 299)"/>
</clipPath>
</defs>
</svg>
