<?xml version="1.0" encoding="UTF-8"?> <svg xmlns="http://www.w3.org/2000/svg" width="1415" height="796" viewBox="0 0 1415 796" fill="none"><path d="M1078.58 379.077C1075.49 378.047 1072.4 377.017 1069.31 376.193C1066.01 375.162 1063.13 374.132 1060.45 372.69C1057.57 371.247 1055.3 369.599 1053.65 367.744C1051.59 365.478 1050.56 362.799 1050.56 359.502C1050.56 354.969 1052.41 351.054 1056.12 348.169C1059.63 345.49 1064.16 344.048 1069.72 344.048C1073.84 344.048 1078.17 344.872 1082.71 346.726C1086.21 348.169 1089.71 350.229 1093.21 352.702L1105.78 327.769C1099.4 324.472 1092.8 322 1086 320.145C1070.34 316.024 1055.3 316.23 1043.97 320.557C1037.99 322.824 1033.05 325.915 1028.92 329.83C1024.8 333.745 1021.71 338.69 1019.45 344.254C1017.18 349.817 1016.15 356.205 1016.15 363.211C1016.15 370.217 1017.18 375.781 1019.24 380.314C1021.3 384.847 1024.18 388.556 1027.48 391.441C1030.98 394.326 1034.9 396.798 1039.43 398.653C1044.17 400.507 1048.91 402.362 1053.65 403.804C1057.77 405.247 1061.28 406.483 1064.37 407.719C1067.46 408.956 1070.14 410.398 1071.99 411.841C1074.05 413.489 1075.7 415.344 1076.52 417.404C1077.55 419.465 1077.97 421.731 1077.97 424.41C1077.97 428.737 1076.11 432.858 1072.61 436.155C1069.11 439.452 1063.95 441.101 1056.95 441.101C1051.18 441.101 1045.41 439.658 1039.43 437.186C1034.49 434.919 1029.34 431.622 1024.39 427.501L1010.79 453.67C1025.42 463.561 1041.49 468.712 1058.6 468.712C1067.25 468.712 1074.87 467.476 1081.67 465.209C1088.27 462.943 1094.04 459.646 1098.57 455.525C1103.1 451.404 1106.61 446.458 1108.87 440.689C1111.14 434.919 1112.38 428.325 1112.38 421.113C1112.38 410.604 1109.7 401.744 1104.34 395.356C1099.19 388.556 1090.54 382.993 1078.58 379.077Z" fill="black"></path><path d="M1230.24 395.15C1224.88 388.556 1216.02 383.199 1204.28 379.077C1201.19 378.047 1198.1 377.017 1195.01 376.193C1191.71 375.162 1188.82 374.132 1186.15 372.69C1183.26 371.247 1180.99 369.599 1179.35 367.744C1177.29 365.478 1176.26 362.799 1176.26 359.502C1176.26 354.969 1178.11 351.054 1181.82 348.169C1185.32 345.49 1189.86 344.048 1195.42 344.048C1199.54 344.048 1203.87 344.872 1208.4 346.726C1211.9 348.169 1215.41 350.229 1218.91 352.702L1231.48 327.769C1225.09 324.472 1218.5 322 1211.7 320.145C1196.04 316.024 1180.99 316.23 1169.66 320.557C1163.69 322.824 1158.74 325.915 1154.62 329.83C1150.5 333.745 1147.41 338.69 1145.14 344.254C1142.87 349.817 1141.84 356.205 1141.84 363.211C1141.84 370.217 1142.87 375.781 1144.93 380.314C1147 384.847 1149.88 388.556 1153.18 391.441C1156.68 394.326 1160.6 396.798 1165.13 398.653C1169.87 400.507 1174.61 402.362 1179.35 403.804C1183.47 405.247 1186.97 406.483 1190.06 407.719C1193.15 408.956 1195.83 410.398 1197.69 411.841C1199.75 413.489 1201.39 415.344 1202.42 417.404C1203.45 419.465 1203.87 421.731 1203.87 424.41C1203.87 428.737 1202.01 432.858 1198.51 436.155C1195.01 439.452 1189.86 441.101 1182.85 441.101C1177.08 441.101 1171.31 439.658 1165.33 437.186C1160.39 434.919 1155.24 431.622 1150.29 427.501L1136.69 453.67C1151.32 463.561 1167.39 468.712 1184.5 468.712C1193.15 468.712 1200.78 467.476 1207.58 465.209C1214.17 462.943 1219.94 459.646 1224.47 455.525C1229.01 451.404 1232.51 446.458 1234.78 440.689C1237.04 434.919 1238.28 428.325 1238.28 421.113C1238.28 410.192 1235.39 401.538 1230.24 395.15Z" fill="black"></path><path d="M844.916 320.145V465.827H876.443V401.537L914.151 442.543L950.83 401.743L951.448 465.827H982.356V320.145L914.151 397.416L844.916 320.145Z" fill="black"></path><path d="M697.378 377.428H622.992V320.762H591.671V377.428V409.367V465.827H622.992V409.367H697.378V465.827H728.905V320.762H697.378V377.428Z" fill="black"></path><path d="M802.674 320.762H771.147V465.827H802.674V320.762Z" fill="black"></path><path d="M320.659 579.133C326.211 573.581 326.211 564.579 320.659 559.026C315.106 553.474 306.104 553.474 300.552 559.026C294.999 564.579 294.999 573.581 300.552 579.133C306.104 584.686 315.106 584.686 320.659 579.133Z" fill="black"></path><path d="M268.366 577.716C275.991 577.716 282.172 571.535 282.172 563.91C282.172 556.285 275.991 550.104 268.366 550.104C260.742 550.104 254.561 556.285 254.561 563.91C254.561 571.535 260.742 577.716 268.366 577.716Z" fill="black"></path><path d="M228.599 535.475C221.181 535.475 215.205 541.451 215.205 548.869C215.205 556.287 221.181 562.262 228.599 562.262C236.017 562.262 241.993 556.287 241.993 548.869C241.993 541.451 236.017 535.475 228.599 535.475Z" fill="black"></path><path d="M202.805 533.907C207.875 528.837 207.875 520.618 202.805 515.548C197.736 510.478 189.516 510.478 184.447 515.548C179.377 520.618 179.377 528.837 184.447 533.907C189.516 538.976 197.736 538.976 202.805 533.907Z" fill="black"></path><path d="M165.338 505.391C172.28 505.391 177.908 499.763 177.908 492.821C177.908 485.88 172.28 480.252 165.338 480.252C158.396 480.252 152.769 485.88 152.769 492.821C152.769 499.763 158.396 505.391 165.338 505.391Z" fill="black"></path><path d="M148.354 466.91C154.888 465.367 158.934 458.819 157.391 452.285C155.849 445.751 149.301 441.704 142.766 443.247C136.232 444.79 132.185 451.338 133.728 457.873C135.271 464.407 141.819 468.453 148.354 466.91Z" fill="black"></path><path d="M135.46 425.646C141.947 425.646 147.205 420.387 147.205 413.901C147.205 407.414 141.947 402.155 135.46 402.155C128.973 402.155 123.715 407.414 123.715 413.901C123.715 420.387 128.973 425.646 135.46 425.646Z" fill="black"></path><path d="M135.461 382.786C141.849 382.786 147 377.635 147 371.247C147 364.859 141.849 359.708 135.461 359.708C129.073 359.708 123.922 364.859 123.922 371.247C123.716 377.635 129.073 382.786 135.461 382.786Z" fill="black"></path><path d="M145.557 341.163C151.738 341.163 156.684 336.218 156.684 330.036C156.684 323.855 151.738 318.909 145.557 318.909C139.375 318.909 134.43 323.855 134.43 330.036C134.43 336.012 139.375 341.163 145.557 341.163Z" fill="black"></path><path d="M172.974 299.873C177.158 295.689 177.158 288.905 172.974 284.72C168.789 280.536 162.005 280.536 157.821 284.72C153.636 288.905 153.636 295.689 157.821 299.873C162.005 304.058 168.789 304.058 172.974 299.873Z" fill="black"></path><path d="M193.569 270.898C199.373 270.898 204.078 266.193 204.078 260.389C204.078 254.585 199.373 249.88 193.569 249.88C187.766 249.88 183.061 254.585 183.061 260.389C183.061 266.193 187.766 270.898 193.569 270.898Z" fill="black"></path><path d="M230.937 246.079C236.364 244.798 239.725 239.36 238.443 233.933C237.162 228.506 231.724 225.145 226.297 226.427C220.87 227.708 217.51 233.146 218.791 238.573C220.072 244 225.511 247.361 230.937 246.079Z" fill="black"></path><path d="M268.367 230.716C273.725 230.716 278.052 226.389 278.052 221.032C278.052 215.674 273.725 211.347 268.367 211.347C263.01 211.347 258.683 215.674 258.683 221.032C258.683 226.389 263.01 230.716 268.367 230.716Z" fill="black"></path><path d="M320.602 534.855C326.154 529.303 326.154 520.301 320.602 514.748C315.05 509.196 306.047 509.196 300.495 514.748C294.943 520.301 294.943 529.303 300.495 534.855C306.047 540.408 315.05 540.408 320.602 534.855Z" fill="black"></path><path d="M269.81 504.771C262.186 504.771 256.21 510.953 256.21 518.371C256.21 525.995 262.392 531.971 269.81 531.971C277.228 531.971 283.41 525.789 283.41 518.371C283.41 510.953 277.228 504.771 269.81 504.771Z" fill="black"></path><path d="M245.111 504.575C247.899 497.846 244.703 490.131 237.974 487.344C231.245 484.556 223.531 487.752 220.743 494.481C217.956 501.21 221.151 508.925 227.88 511.712C234.609 514.499 242.324 511.304 245.111 504.575Z" fill="black"></path><path d="M203.664 457.585C196.658 457.585 190.889 463.355 190.889 470.361C190.889 477.367 196.658 483.137 203.664 483.137C210.67 483.137 216.44 477.367 216.44 470.361C216.234 463.355 210.464 457.585 203.664 457.585Z" fill="black"></path><path d="M184.707 445.633C191.507 445.633 196.865 440.07 196.865 433.476C196.865 426.882 191.301 421.318 184.707 421.318C178.113 421.318 172.55 426.882 172.55 433.476C172.55 440.07 178.113 445.633 184.707 445.633Z" fill="black"></path><path d="M181.017 403.877C187.33 402.386 191.239 396.06 189.749 389.747C188.258 383.434 181.932 379.525 175.619 381.016C169.306 382.506 165.397 388.832 166.888 395.145C168.378 401.458 174.704 405.367 181.017 403.877Z" fill="black"></path><path d="M187.287 362.489C193.267 361.077 196.971 355.084 195.559 349.104C194.146 343.123 188.153 339.419 182.173 340.832C176.192 342.244 172.489 348.237 173.901 354.218C175.313 360.198 181.306 363.902 187.287 362.489Z" fill="black"></path><path d="M192.95 314.788C192.95 320.763 197.69 325.503 203.665 325.503C209.641 325.503 214.38 320.763 214.38 314.788C214.38 308.812 209.641 304.073 203.665 304.073C197.69 304.073 192.95 308.812 192.95 314.788Z" fill="black"></path><path d="M222.622 285.528C222.622 291.091 227.155 295.831 232.925 295.831C238.488 295.831 243.228 291.297 243.228 285.528C243.228 279.964 238.695 275.225 232.925 275.225C227.155 275.225 222.622 279.758 222.622 285.528Z" fill="black"></path><path d="M269.809 256.885C264.451 256.885 260.124 261.212 260.124 266.569C260.124 271.927 264.451 276.254 269.809 276.254C275.166 276.254 279.493 271.927 279.493 266.569C279.493 261.212 275.166 256.885 269.809 256.885Z" fill="black"></path><path d="M320.694 490.515C326.246 484.962 326.246 475.96 320.694 470.408C315.141 464.855 306.139 464.855 300.587 470.408C295.034 475.96 295.034 484.962 300.587 490.515C306.139 496.067 315.141 496.067 320.694 490.515Z" fill="black"></path><path d="M269.81 456.555C262.186 456.555 256.004 462.737 256.004 470.361C256.004 477.985 262.186 484.167 269.81 484.167C277.434 484.167 283.616 477.985 283.616 470.361C283.616 462.737 277.434 456.555 269.81 456.555Z" fill="black"></path><path d="M238.282 429.355C231.07 429.355 225.301 435.125 225.301 442.337C225.301 449.549 231.07 455.318 238.282 455.318C245.494 455.318 251.264 449.549 251.264 442.337C251.264 435.125 245.494 429.355 238.282 429.355Z" fill="black"></path><path d="M223.447 415.344C230.247 415.344 235.605 409.781 235.605 403.187C235.605 396.387 230.041 391.029 223.447 391.029C216.853 391.029 211.29 396.593 211.29 403.187C211.084 409.987 216.647 415.344 223.447 415.344Z" fill="black"></path><path d="M228.392 372.689C234.573 372.689 239.725 367.538 239.725 361.356C239.725 355.174 234.573 350.023 228.392 350.023C222.21 350.023 217.059 355.174 217.059 361.356C217.059 367.744 222.21 372.689 228.392 372.689Z" fill="black"></path><path d="M252.295 337.247C258.099 337.247 262.804 332.542 262.804 326.738C262.804 320.934 258.099 316.229 252.295 316.229C246.491 316.229 241.786 320.934 241.786 326.738C241.786 332.542 246.491 337.247 252.295 337.247Z" fill="black"></path><path d="M289.591 297.684C284.233 297.684 280.112 302.011 280.112 307.162C280.112 312.314 284.44 316.641 289.591 316.641C294.742 316.641 299.07 312.314 299.07 307.162C299.07 302.011 294.742 297.684 289.591 297.684Z" fill="black"></path><path d="M310.609 225.358C315.76 225.358 319.881 221.237 319.881 216.086C319.881 210.934 315.76 206.813 310.609 206.813C305.457 206.813 301.336 210.934 301.336 216.086C301.336 221.237 305.457 225.358 310.609 225.358Z" fill="black"></path><path d="M352.851 230.098C357.796 230.098 361.917 225.977 361.917 221.031C361.917 216.086 357.796 211.965 352.851 211.965C347.905 211.965 343.784 216.086 343.784 221.031C343.784 225.977 347.905 230.098 352.851 230.098Z" fill="black"></path><path d="M392.619 244.728C397.359 244.728 401.274 240.813 401.274 236.073C401.274 231.334 397.359 227.419 392.619 227.419C387.88 227.419 383.965 231.334 383.965 236.073C383.965 240.813 387.88 244.728 392.619 244.728Z" fill="black"></path><path d="M427.65 268.424C432.183 268.424 435.686 264.715 435.686 260.387C435.686 255.854 431.977 252.351 427.65 252.351C423.116 252.351 419.613 256.06 419.613 260.387C419.613 264.921 423.322 268.424 427.65 268.424Z" fill="black"></path><path d="M455.88 284.497C451.553 284.497 448.05 288 448.05 292.328C448.05 296.655 451.553 300.158 455.88 300.158C460.207 300.158 463.71 296.655 463.71 292.328C463.71 288 460.207 284.497 455.88 284.497Z" fill="black"></path><path d="M475.66 337.454C479.781 337.454 483.078 334.157 483.078 330.036C483.078 325.915 479.781 322.618 475.66 322.618C471.539 322.618 468.242 325.915 468.242 330.036C468.242 333.951 471.745 337.454 475.66 337.454Z" fill="black"></path><path d="M478.752 371.248C478.752 375.163 481.843 378.254 485.758 378.254C489.673 378.254 492.764 375.163 492.764 371.248C492.764 367.333 489.673 364.242 485.758 364.242C481.843 364.242 478.752 367.333 478.752 371.248Z" fill="black"></path><path d="M485.963 420.701C489.718 420.701 492.763 417.657 492.763 413.901C492.763 410.146 489.718 407.102 485.963 407.102C482.207 407.102 479.163 410.146 479.163 413.901C479.163 417.657 482.207 420.701 485.963 420.701Z" fill="black"></path><path d="M475.66 448.725C472.157 448.725 469.272 451.61 469.272 455.113C469.272 458.616 472.157 461.501 475.66 461.501C479.163 461.501 482.048 458.616 482.048 455.113C482.048 451.61 479.369 448.725 475.66 448.725Z" fill="black"></path><path d="M455.879 486.846C452.582 486.846 449.903 489.525 449.903 492.822C449.903 496.119 452.582 498.798 455.879 498.798C459.176 498.798 461.855 496.119 461.855 492.822C461.855 489.525 459.176 486.846 455.879 486.846Z" fill="black"></path><path d="M427.649 530.529C430.836 530.529 433.419 527.946 433.419 524.76C433.419 521.573 430.836 518.99 427.649 518.99C424.463 518.99 421.88 521.573 421.88 524.76C421.88 527.946 424.463 530.529 427.649 530.529Z" fill="black"></path><path d="M392.62 543.512C389.735 543.512 387.263 545.984 387.263 548.869C387.263 551.754 389.735 554.227 392.62 554.227C395.505 554.227 397.978 551.754 397.978 548.869C397.978 545.984 395.711 543.512 392.62 543.512Z" fill="black"></path><path d="M352.851 568.857C355.582 568.857 357.796 566.643 357.796 563.912C357.796 561.18 355.582 558.966 352.851 558.966C350.119 558.966 347.905 561.18 347.905 563.912C347.905 566.643 350.119 568.857 352.851 568.857Z" fill="black"></path><path d="M310.609 250.91C305.457 250.91 301.13 255.031 301.13 260.389C301.13 265.746 305.251 269.867 310.609 269.867C315.966 269.867 320.087 265.746 320.087 260.389C320.087 255.031 315.76 250.91 310.609 250.91Z" fill="black"></path><path d="M351.614 257.71C346.669 257.71 342.754 261.625 342.754 266.57C342.754 271.516 346.669 275.431 351.614 275.431C356.56 275.431 360.475 271.516 360.475 266.57C360.475 261.831 356.56 257.71 351.614 257.71Z" fill="black"></path><path d="M388.499 293.975C393.032 293.975 396.947 290.266 396.947 285.526C396.947 280.787 393.238 277.078 388.499 277.078C383.76 277.078 380.051 280.787 380.051 285.526C380.051 290.266 383.76 293.975 388.499 293.975Z" fill="black"></path><path d="M417.759 322.617C422.083 322.617 425.589 319.111 425.589 314.786C425.589 310.462 422.083 306.956 417.759 306.956C413.434 306.956 409.929 310.462 409.929 314.786C409.929 319.111 413.434 322.617 417.759 322.617Z" fill="black"></path><path d="M429.092 351.672C429.092 355.793 432.389 359.09 436.51 359.09C440.631 359.09 443.928 355.793 443.928 351.672C443.928 347.551 440.631 344.254 436.51 344.254C432.389 344.254 429.092 347.551 429.092 351.672Z" fill="black"></path><path d="M442.898 385.671C438.982 385.671 435.892 388.762 435.892 392.677C435.892 396.592 438.982 399.683 442.898 399.683C446.813 399.683 449.903 396.592 449.903 392.677C449.903 388.762 446.813 385.671 442.898 385.671Z" fill="black"></path><path d="M436.51 439.865C440.038 439.865 442.898 437.005 442.898 433.477C442.898 429.949 440.038 427.089 436.51 427.089C432.982 427.089 430.122 429.949 430.122 433.477C430.122 437.005 432.982 439.865 436.51 439.865Z" fill="black"></path><path d="M417.553 464.385C414.256 464.385 411.577 467.063 411.577 470.36C411.577 473.657 414.256 476.336 417.553 476.336C420.85 476.336 423.528 473.657 423.528 470.36C423.528 467.063 421.056 464.385 417.553 464.385Z" fill="black"></path><path d="M393.857 499.622C393.857 496.531 391.384 494.058 388.293 494.058C385.202 494.058 382.729 496.531 382.729 499.622C382.729 502.713 385.202 505.185 388.293 505.185C391.384 505.185 393.857 502.713 393.857 499.622Z" fill="black"></path><path d="M351.408 523.524C354.253 523.524 356.56 521.217 356.56 518.372C356.56 515.527 354.253 513.221 351.408 513.221C348.563 513.221 346.257 515.527 346.257 518.372C346.257 521.217 348.563 523.524 351.408 523.524Z" fill="black"></path><path d="M331.627 316.229C336.634 316.229 340.694 312.17 340.694 307.163C340.694 302.156 336.634 298.096 331.627 298.096C326.62 298.096 322.561 302.156 322.561 307.163C322.561 312.17 326.62 316.229 331.627 316.229Z" fill="black"></path><path d="M368.924 318.497C364.391 318.497 360.682 322.206 360.682 326.739C360.682 331.272 364.391 334.981 368.924 334.981C373.457 334.981 377.166 331.272 377.166 326.739C377.166 322.206 373.457 318.497 368.924 318.497Z" fill="black"></path><path d="M392.826 353.732C388.705 353.732 385.408 357.029 385.408 361.15C385.408 365.271 388.705 368.568 392.826 368.568C396.947 368.568 400.244 365.271 400.244 361.15C400.244 357.029 396.947 353.732 392.826 353.732Z" fill="black"></path><path d="M397.978 395.974C394.063 395.974 390.972 399.064 390.972 402.98C390.972 406.895 394.063 409.986 397.978 409.986C401.893 409.986 404.984 406.895 404.984 402.98C404.984 399.064 401.687 395.974 397.978 395.974Z" fill="black"></path><path d="M389.323 442.337C389.323 438.835 386.439 435.95 383.142 435.95C379.845 435.95 376.96 438.835 376.96 442.337C376.96 445.84 379.845 448.519 383.142 448.519C386.439 448.519 389.323 445.84 389.323 442.337Z" fill="black"></path><path d="M351.614 475.924C354.687 475.924 357.178 473.434 357.178 470.361C357.178 467.288 354.687 464.797 351.614 464.797C348.542 464.797 346.051 467.288 346.051 470.361C346.051 473.434 348.542 475.924 351.614 475.924Z" fill="black"></path><path d="M1257.44 337.659C1256 337.659 1254.35 337.041 1253.12 336.423L1253.94 334.362C1254.97 335.186 1256.41 335.598 1257.44 335.598C1258.88 335.598 1259.5 334.774 1259.5 333.744C1259.5 332.713 1259.09 332.301 1257.03 331.271C1254.56 330.241 1253.73 329.004 1253.73 327.356C1253.73 325.295 1255.38 323.647 1258.27 323.647C1259.5 323.647 1260.95 324.059 1261.77 324.677L1260.95 326.738C1260.12 326.326 1259.09 325.708 1258.27 325.708C1256.82 325.708 1256.21 326.532 1256.21 327.356C1256.21 328.18 1256.82 328.798 1258.47 329.623C1261.15 330.859 1261.98 331.889 1261.98 333.744C1261.77 335.804 1260.12 337.659 1257.44 337.659Z" fill="black"></path><path d="M1276.81 337.453L1276.6 329.211L1272.28 335.804H1272.07L1267.74 329.211L1267.54 337.453H1265.27L1265.89 323.647H1266.3L1272.28 332.713L1278.25 323.647H1278.67L1279.28 337.453H1276.81Z" fill="black"></path></svg> 