<?xml version="1.0" encoding="UTF-8"?> <svg xmlns="http://www.w3.org/2000/svg" width="1415" height="796" viewBox="0 0 1415 796" fill="none"><g clip-path="url(#clip0_95_1135)"><path d="M637.579 327.305H578.269V435.8H547.251V327.305H488.288V300.665H637.579V327.305Z" fill="black"></path><path d="M804.032 387.715C826.527 382.491 841.833 368.204 841.833 345.258C841.833 315.905 816.816 300.636 783.653 300.636H690.02V435.771H720.834V389.822H769.912L808.873 435.771H845.92L804.032 387.715V387.715ZM720.66 364.365V326.526H781.913C798.205 326.526 810.235 330.394 810.235 345.46C810.235 360.526 798.205 364.394 781.913 364.394H720.66V364.365Z" fill="black"></path><path d="M1051.85 300.665V372.1C1051.85 412.652 1024.9 440.043 975.644 440.043C926.392 440.043 899.462 412.623 899.462 372.1V300.665H930.48V369.762C930.48 396.778 946.365 412.998 975.644 412.998C1004.92 412.998 1020.81 396.778 1020.81 369.762V300.665H1051.83H1051.85Z" fill="black"></path><path d="M1256.66 409.91V435.8H1116.88V300.665H1254.75V326.526H1147.72V354.321H1237.09V380.182H1147.72V409.91H1256.66Z" fill="black"></path><path d="M464.228 376.17L409.295 321.504L358.188 270.619C334.562 247.038 303.428 235.205 272.411 235.205H177.009L162.08 261.874H272.411C282.847 261.874 293.282 263.605 303.254 267.011C279.049 268.743 255.249 278.845 236.755 297.259L233.363 300.636H162.109L177.009 327.276H206.578L157.5 376.17L206.607 425.092H177.009L162.109 451.732H233.363L236.755 455.109C255.249 473.524 279.049 483.625 303.254 485.357C293.282 488.763 282.876 490.495 272.411 490.495H162.08L177.009 517.164H272.411C303.428 517.164 334.562 505.33 358.188 481.778L409.295 430.893L464.228 376.199V376.17ZM426.369 376.17L390.336 412.046L354.303 376.199L390.336 340.322H390.365L426.34 376.199L426.369 376.17ZM310.85 293.363C330.736 293.392 350.448 300.838 365.725 315.847L371.378 321.475L335.345 357.351L300.993 323.149C292.181 314.346 281.687 308.198 270.584 304.562C282.934 297.144 296.848 293.363 310.821 293.363H310.85ZM244.466 425.063L195.359 376.17L244.437 327.305H246.524C259.453 327.334 272.237 332.183 282.064 342.025L316.386 376.199L282.064 410.372C272.237 420.185 259.424 425.034 246.524 425.092H244.466V425.063ZM310.85 458.977C296.877 458.977 282.963 455.196 270.613 447.778C281.716 444.141 292.181 437.994 300.993 429.19H301.022L335.345 395.017L371.349 430.864L365.696 436.493C350.448 451.501 330.707 458.948 310.821 458.977H310.85Z" fill="black"></path><path d="M690.02 517.134V476.352H697.093V510.785H716.283V517.134H690.02V517.134Z" fill="black"></path><path d="M735.183 517.943C732.285 517.943 729.763 517.337 727.559 516.096C725.356 514.883 723.646 513.152 722.399 510.9C721.182 508.678 720.573 506.051 720.573 503.078V502.386C720.573 499.355 721.182 496.729 722.371 494.535C723.588 492.313 725.269 490.61 727.472 489.369C729.647 488.156 732.169 487.521 735.01 487.521C737.85 487.521 740.285 488.128 742.373 489.369C744.489 490.581 746.112 492.313 747.301 494.535C748.46 496.758 749.069 499.326 749.069 502.27V504.666H727.357C727.444 506.917 728.226 508.736 729.763 510.092C731.299 511.449 733.154 512.141 735.386 512.141C737.619 512.141 739.184 511.651 740.227 510.727C741.271 509.775 742.083 508.707 742.634 507.494L748.199 510.352C747.649 511.391 746.866 512.517 745.822 513.7C744.779 514.883 743.416 515.893 741.706 516.73C739.996 517.568 737.821 517.972 735.212 517.972L735.183 517.943ZM727.415 499.586H742.228C742.083 497.681 741.329 496.18 740.025 495.055C738.72 493.929 737.039 493.381 734.952 493.381C732.864 493.381 731.096 493.958 729.792 495.055C728.516 496.18 727.704 497.71 727.386 499.586H727.415Z" fill="black"></path><path d="M755.939 517.135V488.359H762.549V492.371H763.534C764.027 491.274 764.955 490.264 766.288 489.282C767.622 488.301 769.622 487.839 772.318 487.839C774.55 487.839 776.521 488.33 778.231 489.34C779.942 490.35 781.275 491.736 782.232 493.525C783.188 495.315 783.652 497.422 783.652 499.875V517.106H776.927V500.395C776.927 498.057 776.347 496.325 775.188 495.17C774.028 494.016 772.405 493.439 770.317 493.439C767.94 493.439 766.056 494.218 764.694 495.805C763.331 497.393 762.636 499.615 762.636 502.53V517.077H755.91L755.939 517.135Z" fill="black"></path><path d="M803.742 517.943C801.393 517.943 799.219 517.366 797.19 516.24C795.161 515.114 793.538 513.412 792.349 511.189C791.161 508.967 790.552 506.311 790.552 503.223V502.299C790.552 499.182 791.161 496.527 792.349 494.333C793.567 492.111 795.161 490.437 797.19 489.282C799.19 488.128 801.393 487.58 803.771 487.58C805.568 487.58 807.075 487.782 808.322 488.215C809.568 488.647 810.583 489.196 811.337 489.86C812.09 490.524 812.699 491.245 813.134 492.024H814.119V476.41H820.787V517.193H814.235V513.412H813.25C812.554 514.566 811.482 515.634 810.032 516.586C808.583 517.539 806.495 518.001 803.771 518.001L803.742 517.943ZM805.742 512.113C808.148 512.113 810.177 511.333 811.771 509.746C813.366 508.187 814.177 505.936 814.177 503.021V502.444C814.177 499.5 813.395 497.249 811.8 495.69C810.206 494.131 808.206 493.352 805.742 493.352C803.278 493.352 801.306 494.131 799.683 495.69C798.06 497.249 797.248 499.5 797.248 502.444V503.021C797.248 505.936 798.06 508.187 799.683 509.746C801.306 511.305 803.307 512.113 805.742 512.113V512.113Z" fill="black"></path><path d="M832.614 484.693C831.396 484.693 830.353 484.289 829.483 483.51C828.614 482.702 828.179 481.663 828.179 480.335C828.179 479.007 828.614 477.968 829.483 477.16C830.353 476.352 831.396 475.977 832.614 475.977C833.889 475.977 834.962 476.381 835.803 477.16C836.643 477.968 837.049 479.007 837.049 480.335C837.049 481.663 836.643 482.702 835.803 483.51C834.962 484.318 833.889 484.693 832.614 484.693ZM829.28 517.135V488.359H836.006V517.135H829.28Z" fill="black"></path><path d="M844.557 517.135V488.359H851.167V492.371H852.152C852.645 491.274 853.573 490.264 854.906 489.282C856.24 488.301 858.24 487.839 860.936 487.839C863.168 487.839 865.139 488.33 866.85 489.34C868.56 490.35 869.893 491.736 870.85 493.525C871.807 495.315 872.27 497.422 872.27 499.875V517.106H865.545V500.395C865.545 498.057 864.965 496.325 863.806 495.17C862.646 494.016 861.023 493.439 858.936 493.439C856.559 493.439 854.674 494.218 853.312 495.805C851.949 497.393 851.254 499.615 851.254 502.53V517.077H844.528L844.557 517.135Z" fill="black"></path><path d="M879.141 502.877V502.011C879.141 498.98 879.75 496.383 880.939 494.247C882.156 492.082 883.779 490.437 885.78 489.282C887.809 488.128 890.041 487.58 892.447 487.58C895.172 487.58 897.259 488.07 898.68 489.023C900.1 490.004 901.144 491.043 901.81 492.169H902.796V488.388H909.347V522.648C909.347 524.553 908.797 526.054 907.695 527.15C906.594 528.247 905.115 528.824 903.26 528.824H883.837V522.994H900.97C902.1 522.994 902.651 522.417 902.651 521.233V512.921H901.665C901.231 513.585 900.651 514.249 899.897 514.941C899.143 515.634 898.187 516.182 896.969 516.673C895.752 517.164 894.244 517.366 892.418 517.366C890.012 517.366 887.78 516.789 885.751 515.634C883.722 514.48 882.098 512.834 880.91 510.699C879.721 508.563 879.112 505.965 879.112 502.935L879.141 502.877ZM894.36 511.449C896.766 511.449 898.796 510.67 900.39 509.14C901.984 507.61 902.796 505.474 902.796 502.704V502.126C902.796 499.327 902.013 497.162 900.419 495.661C898.825 494.16 896.824 493.381 894.36 493.381C891.896 493.381 889.925 494.131 888.302 495.661C886.678 497.162 885.867 499.327 885.867 502.126V502.704C885.867 505.474 886.678 507.61 888.302 509.14C889.925 510.67 891.925 511.449 894.36 511.449V511.449Z" fill="black"></path><path d="M932.596 517.134V476.352H939.669V517.134H932.596Z" fill="black"></path><path d="M947.989 517.135V488.359H954.598V492.371H955.584C956.077 491.274 957.004 490.264 958.338 489.282C959.671 488.301 961.672 487.839 964.367 487.839C966.6 487.839 968.571 488.33 970.281 489.34C971.992 490.35 973.325 491.736 974.282 493.525C975.238 495.315 975.702 497.422 975.702 499.875V517.106H968.977V500.395C968.977 498.057 968.397 496.325 967.237 495.17C966.078 494.016 964.454 493.439 962.367 493.439C959.99 493.439 958.106 494.218 956.743 495.805C955.381 497.393 954.685 499.615 954.685 502.53V517.077H947.96L947.989 517.135Z" fill="black"></path><path d="M994.139 517.135C992.254 517.135 990.776 516.586 989.674 515.461C988.573 514.364 987.993 512.863 987.993 510.958V493.9H980.456V488.359H987.993V479.094H994.718V488.359H1003.04V493.9H994.718V509.861C994.718 511.016 995.269 511.622 996.371 511.622H1002.17V517.164H994.168L994.139 517.135Z" fill="black"></path><path d="M1022.05 517.943C1019.16 517.943 1016.63 517.337 1014.43 516.096C1012.23 514.883 1010.52 513.152 1009.27 510.9C1008.05 508.678 1007.44 506.051 1007.44 503.078V502.386C1007.44 499.355 1008.05 496.729 1009.24 494.535C1010.46 492.313 1012.14 490.61 1014.34 489.369C1016.52 488.156 1019.04 487.521 1021.88 487.521C1024.72 487.521 1027.16 488.128 1029.24 489.369C1031.36 490.581 1032.98 492.313 1034.17 494.535C1035.33 496.758 1035.94 499.326 1035.94 502.27V504.666H1014.23C1014.31 506.917 1015.1 508.736 1016.63 510.092C1018.17 511.449 1020.03 512.141 1022.26 512.141C1024.49 512.141 1026.05 511.651 1027.1 510.727C1028.14 509.775 1028.95 508.707 1029.5 507.494L1035.07 510.352C1034.52 511.391 1033.74 512.517 1032.69 513.7C1031.65 514.883 1030.29 515.893 1028.58 516.73C1026.87 517.568 1024.69 517.972 1022.08 517.972L1022.05 517.943ZM1014.29 499.586H1029.1C1028.95 497.681 1028.2 496.18 1026.9 495.055C1025.59 493.929 1023.91 493.381 1021.82 493.381C1019.74 493.381 1017.97 493.958 1016.66 495.055C1015.39 496.18 1014.58 497.71 1014.26 499.586H1014.29Z" fill="black"></path><path d="M1042.81 517.134V476.352H1049.54V517.134H1042.81Z" fill="black"></path><path d="M1058.09 517.134V476.352H1064.81V517.134H1058.09Z" fill="black"></path><path d="M1076.67 484.693C1075.45 484.693 1074.41 484.289 1073.54 483.51C1072.67 482.702 1072.23 481.663 1072.23 480.335C1072.23 479.007 1072.67 477.968 1073.54 477.16C1074.41 476.352 1075.45 475.977 1076.67 475.977C1077.94 475.977 1079.02 476.381 1079.86 477.16C1080.7 477.968 1081.1 479.007 1081.1 480.335C1081.1 481.663 1080.7 482.702 1079.86 483.51C1079.02 484.318 1077.94 484.693 1076.67 484.693ZM1073.33 517.135V488.359H1080.06V517.135H1073.33Z" fill="black"></path><path d="M1087.22 502.877V502.011C1087.22 498.98 1087.83 496.383 1089.02 494.247C1090.24 492.082 1091.86 490.437 1093.86 489.282C1095.89 488.128 1098.12 487.58 1100.53 487.58C1103.25 487.58 1105.34 488.07 1106.76 489.023C1108.18 490.004 1109.22 491.043 1109.89 492.169H1110.88V488.388H1117.43V522.648C1117.43 524.553 1116.88 526.054 1115.77 527.15C1114.67 528.247 1113.19 528.824 1111.34 528.824H1091.92V522.994H1109.05C1110.18 522.994 1110.73 522.417 1110.73 521.233V512.921H1109.74C1109.31 513.585 1108.73 514.249 1107.98 514.941C1107.22 515.634 1106.27 516.182 1105.05 516.673C1103.83 517.164 1102.32 517.366 1100.5 517.366C1098.09 517.366 1095.86 516.789 1093.83 515.634C1091.8 514.48 1090.18 512.834 1088.99 510.699C1087.8 508.563 1087.19 505.965 1087.19 502.935L1087.22 502.877ZM1102.44 511.449C1104.85 511.449 1106.87 510.67 1108.47 509.14C1110.06 507.61 1110.88 505.474 1110.88 502.704V502.126C1110.88 499.327 1110.09 497.162 1108.5 495.661C1106.9 494.16 1104.9 493.381 1102.44 493.381C1099.98 493.381 1098 494.131 1096.38 495.661C1094.76 497.162 1093.95 499.327 1093.95 502.126V502.704C1093.95 505.474 1094.76 507.61 1096.38 509.14C1098 510.67 1100 511.449 1102.44 511.449Z" fill="black"></path><path d="M1139.2 517.943C1136.3 517.943 1133.78 517.337 1131.57 516.096C1129.37 514.883 1127.66 513.152 1126.41 510.9C1125.2 508.678 1124.59 506.051 1124.59 503.078V502.386C1124.59 499.355 1125.2 496.729 1126.38 494.535C1127.6 492.313 1129.28 490.61 1131.49 489.369C1133.66 488.156 1136.18 487.521 1139.02 487.521C1141.86 487.521 1144.3 488.128 1146.39 489.369C1148.5 490.581 1150.13 492.313 1151.31 494.535C1152.47 496.758 1153.08 499.326 1153.08 502.27V504.666H1131.37C1131.46 506.917 1132.24 508.736 1133.78 510.092C1135.31 511.449 1137.17 512.141 1139.4 512.141C1141.63 512.141 1143.2 511.651 1144.24 510.727C1145.28 509.775 1146.1 508.707 1146.65 507.494L1152.21 510.352C1151.66 511.391 1150.88 512.517 1149.84 513.7C1148.79 514.883 1147.43 515.893 1145.72 516.73C1144.01 517.568 1141.84 517.972 1139.23 517.972L1139.2 517.943ZM1131.43 499.586H1146.24C1146.1 497.681 1145.34 496.18 1144.04 495.055C1142.73 493.929 1141.05 493.381 1138.97 493.381C1136.88 493.381 1135.11 493.958 1133.81 495.055C1132.53 496.18 1131.72 497.71 1131.4 499.586H1131.43Z" fill="black"></path><path d="M1159.98 517.135V488.359H1166.59V492.371H1167.58C1168.07 491.274 1169 490.264 1170.33 489.282C1171.66 488.301 1173.66 487.839 1176.36 487.839C1178.59 487.839 1180.56 488.33 1182.27 489.34C1183.98 490.35 1185.32 491.736 1186.27 493.525C1187.23 495.315 1187.7 497.422 1187.7 499.875V517.106H1180.97V500.395C1180.97 498.057 1180.39 496.325 1179.23 495.17C1178.07 494.016 1176.45 493.439 1174.36 493.439C1171.98 493.439 1170.1 494.218 1168.74 495.805C1167.37 497.393 1166.68 499.615 1166.68 502.53V517.077H1159.95L1159.98 517.135Z" fill="black"></path><path d="M1209.47 517.943C1206.65 517.943 1204.13 517.366 1201.87 516.182C1199.61 515.028 1197.81 513.325 1196.51 511.131C1195.2 508.909 1194.54 506.254 1194.54 503.165V502.357C1194.54 499.24 1195.17 496.585 1196.51 494.391C1197.81 492.169 1199.61 490.495 1201.87 489.34C1204.13 488.186 1206.65 487.58 1209.47 487.58C1212.28 487.58 1214.6 488.07 1216.57 489.023C1218.54 490.004 1220.13 491.332 1221.32 493.006C1222.54 494.68 1223.32 496.585 1223.67 498.692L1217.18 500.019C1217.03 498.807 1216.65 497.71 1216.07 496.729C1215.49 495.748 1214.65 494.94 1213.58 494.362C1212.51 493.785 1211.2 493.496 1209.64 493.496C1208.07 493.496 1206.6 493.843 1205.35 494.507C1204.1 495.17 1203.09 496.21 1202.36 497.566C1201.64 498.923 1201.29 500.568 1201.29 502.473V503.05C1201.29 504.955 1201.64 506.571 1202.36 507.928C1203.09 509.255 1204.07 510.294 1205.35 510.987C1206.62 511.68 1208.04 512.026 1209.64 512.026C1212.02 512.026 1213.81 511.42 1215.06 510.179C1216.31 508.938 1217.06 507.379 1217.38 505.446L1223.87 506.946C1223.41 508.967 1222.57 510.814 1221.35 512.488C1220.13 514.162 1218.54 515.49 1216.6 516.471C1214.63 517.452 1212.25 517.943 1209.49 517.943H1209.47Z" fill="black"></path><path d="M1243.64 517.943C1240.74 517.943 1238.22 517.337 1236.02 516.096C1233.82 514.883 1232.11 513.152 1230.86 510.9C1229.64 508.678 1229.03 506.051 1229.03 503.078V502.386C1229.03 499.355 1229.64 496.729 1230.83 494.535C1232.05 492.313 1233.73 490.61 1235.93 489.369C1238.11 488.156 1240.63 487.521 1243.47 487.521C1246.31 487.521 1248.75 488.128 1250.83 489.369C1252.95 490.581 1254.57 492.313 1255.76 494.535C1256.92 496.758 1257.53 499.326 1257.53 502.27V504.666H1235.82C1235.9 506.917 1236.69 508.736 1238.22 510.092C1239.76 511.449 1241.61 512.141 1243.85 512.141C1246.08 512.141 1247.64 511.651 1248.69 510.727C1249.73 509.775 1250.54 508.707 1251.09 507.494L1256.66 510.352C1256.11 511.391 1255.33 512.517 1254.28 513.7C1253.24 514.883 1251.88 515.893 1250.17 516.73C1248.46 517.568 1246.28 517.972 1243.67 517.972L1243.64 517.943ZM1235.87 499.586H1250.69C1250.54 497.681 1249.79 496.18 1248.48 495.055C1247.18 493.929 1245.5 493.381 1243.41 493.381C1241.32 493.381 1239.56 493.958 1238.25 495.055C1236.98 496.18 1236.16 497.71 1235.85 499.586H1235.87Z" fill="black"></path></g><defs><clipPath id="clip0_95_1135"><rect width="1100" height="293.591" fill="white" transform="translate(157.5 235.205)"></rect></clipPath></defs></svg> 