<?xml version="1.0" encoding="UTF-8"?> <svg xmlns="http://www.w3.org/2000/svg" width="1415" height="796" viewBox="0 0 1415 796" fill="none"><g clip-path="url(#clip0_1515_384)"><path d="M96.7154 328.634L166.772 450.235L143.398 491L50 328.634H96.7154ZM125.744 328.634L219.109 491L242.417 450.433L172.394 328.601L125.744 328.634ZM281.243 305L237.19 381.612L260.4 422.244L281.144 386.167L341.503 490.967L364.877 450.433L281.243 305ZM502.13 450.895L532.112 375.175H517.318L501.177 419.109L480.038 372.039L458.965 419.274L442.363 375.175H427.372L458.012 450.73L479.841 402.506L502.13 450.895ZM596.021 447.198V434.919H563.869V415.115H587.408V403.001H563.869V387.52H593.095V375.274H550.357V447.198H596.021ZM684.783 447.198L647.24 371.94L609.664 447.198H624.655L630.901 433.995H663.448L669.694 447.198H684.783ZM658.056 422.607H636.391L647.141 399.766L658.056 422.607ZM745.766 447.099V434.919H715.719V375.175H702.273V447.198L745.766 447.099ZM786.762 447.099V387.52H807.999V375.274H752.111V387.52H773.25V447.297L786.762 447.099ZM887.951 447.099V375.175H874.505V404.321H841.959V375.175H828.48V447.297H841.959V416.633H874.505V447.297L887.951 447.099ZM1003.41 447.099L965.832 371.841L928.256 447.099H943.247L949.526 433.896H982.039L988.318 447.099H1003.41ZM976.648 422.508H955.016L965.733 399.667L976.648 422.508ZM1073.69 430.43C1068.1 434.869 1061.09 437.099 1053.97 436.702C1050.65 436.75 1047.35 436.139 1044.26 434.905C1041.18 433.672 1038.37 431.838 1035.99 429.511C1033.61 427.184 1031.71 424.408 1030.4 421.343C1029.09 418.278 1028.4 414.984 1028.36 411.649C1028.36 396.696 1038.03 385.771 1052 385.771C1055.69 385.623 1059.37 386.21 1062.83 387.495C1066.3 388.781 1069.47 390.741 1072.18 393.263L1079.32 383.955C1077.61 381.579 1068.4 373.558 1052.65 373.558C1047.62 373.375 1042.59 374.217 1037.89 376.034C1033.18 377.851 1028.89 380.604 1025.28 384.128C1021.66 387.653 1018.79 391.876 1016.84 396.543C1014.89 401.21 1013.9 406.225 1013.93 411.286C1013.93 431.652 1030.92 448.915 1053.87 448.915C1058.63 449.151 1063.38 448.419 1067.85 446.762C1072.32 445.106 1076.41 442.56 1079.88 439.276L1073.69 430.43ZM1154.6 430.43C1149 434.86 1141.99 437.09 1134.87 436.702C1131.55 436.754 1128.25 436.147 1125.16 434.915C1122.07 433.683 1119.25 431.851 1116.87 429.523C1114.49 427.195 1112.59 424.418 1111.28 421.351C1109.97 418.283 1109.27 414.986 1109.23 411.649C1109.23 396.696 1118.93 385.771 1132.87 385.771C1136.57 385.621 1140.25 386.206 1143.72 387.492C1147.19 388.777 1150.38 390.739 1153.09 393.263L1160.19 383.955C1158.48 381.579 1149.27 373.558 1133.53 373.558C1128.49 373.37 1123.46 374.209 1118.75 376.024C1114.04 377.839 1109.75 380.591 1106.13 384.116C1102.51 387.641 1099.63 391.865 1097.68 396.535C1095.73 401.204 1094.74 406.222 1094.77 411.286C1094.77 431.652 1111.73 448.915 1134.71 448.915C1139.46 449.148 1144.21 448.415 1148.68 446.758C1153.14 445.102 1157.22 442.557 1160.68 439.276L1154.6 430.43ZM1228.47 447.198V434.919H1196.32V415.115H1219.86V403.001H1196.32V387.52H1225.54V375.274H1182.81V447.198H1228.47ZM1245.63 438.616C1252.31 444.877 1261 448.53 1270.12 448.915C1286.92 448.915 1296.69 439.012 1296.69 427.856C1296.69 402.44 1264.5 405.278 1264.5 392.603C1264.5 387.652 1269.17 385.572 1274 385.572C1279.22 385.876 1284.13 388.152 1287.74 391.943L1294.32 381.843C1288.79 376.595 1281.51 373.605 1273.9 373.459C1261.97 373.459 1250.46 380.324 1250.46 393.263C1250.46 415.247 1282.35 412.87 1282.35 428.12C1282.35 433.368 1278.47 436.768 1271.14 436.768C1264.24 436.523 1257.67 433.752 1252.67 428.978L1245.63 438.616ZM1314.01 438.616C1320.69 444.877 1329.38 448.53 1338.5 448.915C1355.3 448.915 1365.07 439.012 1365.07 427.856C1365.07 402.44 1332.91 405.278 1332.91 392.603C1332.91 387.652 1337.55 385.572 1342.38 385.572C1347.61 385.874 1352.53 388.15 1356.16 391.943L1362.73 381.843C1357.21 376.587 1349.93 373.596 1342.32 373.459C1330.38 373.459 1318.91 380.324 1318.91 393.263C1318.91 415.247 1350.77 412.87 1350.77 428.12C1350.77 433.368 1346.89 436.768 1339.59 436.768C1332.68 436.522 1326.1 433.752 1321.08 428.978L1314.01 438.616Z" fill="black"></path></g><defs><clipPath id="clip0_1515_384"><rect width="1315" height="186" fill="white" transform="translate(50 305)"></rect></clipPath></defs></svg> 