<svg xmlns="http://www.w3.org/2000/svg" id="header-logo" class="brxe-svg header-logo" data-name="Layer 2" viewBox="0 0 400 76.87"><defs><style>.cls-1{fill:#14001d}.cls-2{fill:#850dbd}</style></defs><g id="Logos"><path d="M86.49 64.87H97.3v10.81H86.49zM108.11 54.06h21.62v21.62h-21.62zM0 0h75.68v75.68H0zM86.49 0h43.24v43.24H86.49z" class="cls-2"/><path d="M266.99 69.33c-1.8 2.23-4.1 4.03-6.9 5.39-5.4 2.67-14.45 2.77-20.32.05-3.06-1.33-5.7-3.16-7.92-5.5-2.23-2.33-3.97-5.14-5.23-8.41-2.48-6.32-2.55-14.92 0-21.24 1.26-3.2 3-5.96 5.23-8.3 2.23-2.33 4.87-4.13 7.92-5.39 5.87-2.57 14.93-2.5 20.32.11 2.8 1.33 5.1 3.14 6.9 5.44l.75-6.36h11.32v50.55h-11.1l-.97-6.36Zm-9.16-4.69c1.87-.83 3.47-1.94 4.8-3.34 1.33-1.4 2.35-3.05 3.07-4.96 1.43-3.71 1.45-8.43 0-12.13-.72-1.87-1.74-3.48-3.07-4.85-1.33-1.36-2.93-2.44-4.8-3.23-3.59-1.56-8.63-1.6-12.18 0-1.8.79-3.34 1.87-4.63 3.23-1.29 1.37-2.3 2.98-3.02 4.85-1.45 3.7-1.43 8.41 0 12.13.72 1.91 1.72 3.56 3.02 4.96 1.29 1.4 2.84 2.52 4.63 3.34 3.55 1.67 8.59 1.63 12.18 0ZM284.88 25.13h8.08V11.12l12.07-3.11v17.12h15.74v10.35h-15.74v21.45c0 3.38.99 5.7 2.96 6.95 2.34 1.57 6.17 2.16 9.49 1.78.68-.07 1.31-.18 1.89-.32v10.78c-.93.22-1.99.39-3.18.54-3.92.49-8.1.13-11.53-.92-2.48-.75-4.58-1.92-6.31-3.5-1.72-1.58-3.09-3.59-4.1-6.04-1.01-2.44-1.51-5.35-1.51-8.73V35.48h-7.87V25.13ZM329.88 15.32c-.9-.36-1.67-.88-2.32-1.56a7.999 7.999 0 0 1-1.56-2.37c-.78-1.74-.8-4.04 0-5.82.39-.9.92-1.67 1.56-2.32.65-.65 1.42-1.17 2.32-1.56 1.75-.79 4.18-.79 5.93 0 .9.4 1.69.92 2.37 1.56.68.65 1.2 1.42 1.56 2.32.73 1.78.7 4.08 0 5.82-.36.9-.88 1.69-1.56 2.37-.68.68-1.47 1.2-2.37 1.56-1.75.72-4.18.72-5.93 0Zm-3.29 60.36V25.13h12.4v50.55h-12.4ZM347.83 40.01c1.36-3.23 3.25-6.02 5.66-8.35s5.26-4.19 8.57-5.55c6.44-2.72 15.19-2.74 21.67 0 3.3 1.37 6.16 3.22 8.57 5.55 2.41 2.34 4.29 5.12 5.66 8.35 2.72 6.31 2.74 14.57 0 20.86-1.37 3.2-3.25 5.98-5.66 8.35-2.41 2.37-5.27 4.22-8.57 5.55-6.48 2.67-15.23 2.65-21.67 0-3.31-1.33-6.16-3.18-8.57-5.55-2.41-2.37-4.3-5.16-5.66-8.35-2.74-6.29-2.72-14.55 0-20.86Zm31.1 24.36c1.83-.79 3.4-1.85 4.69-3.18 1.29-1.33 2.32-2.93 3.07-4.8 1.52-3.69 1.5-8.31 0-11.97-.75-1.87-1.78-3.47-3.07-4.8-1.29-1.33-2.86-2.39-4.69-3.18-3.59-1.6-8.52-1.57-12.07 0-1.83.79-3.4 1.85-4.69 3.18-1.29 1.33-2.32 2.93-3.07 4.8-1.5 3.66-1.52 8.27 0 11.97.75 1.87 1.78 3.47 3.07 4.8 1.29 1.33 2.86 2.39 4.69 3.18 3.56 1.57 8.48 1.6 12.07 0Z" class="cls-1"/><path d="m225.58 75.69-14.94-25.45c1.74-1.1 3.33-2.38 4.76-3.88 2.27-2.4 4.02-5.26 5.27-8.58 2.49-6.49 2.51-15.15-.06-21.62-1.28-3.31-3.06-6.17-5.32-8.58-2.27-2.4-4.94-4.27-8.01-5.59C204.21.67 200.88 0 197.29 0h-35.12v75.69h13.04V54.07h22.08c.26 0 .51-.03.76-.04l12.44 21.66h15.09Zm-50.37-64.34h20.51c1.85 0 3.62.33 5.32 1 1.7.67 3.18 1.71 4.45 3.14 1.27 1.43 2.29 3.12 3.07 5.06 1.51 3.73 1.53 9.13.12 12.98-.69 1.95-1.66 3.66-2.89 5.14-1.23 1.48-2.7 2.59-4.39 3.35-1.7.76-3.59 1.14-5.67 1.14h-20.51V11.35Z" class="cls-1"/></g></svg>