<svg width="1415" height="796" viewBox="0 0 1415 796" fill="none" xmlns="http://www.w3.org/2000/svg">
<g clip-path="url(#clip0_94_5836)">
<path d="M559.932 395.998H634.551V419.195H559.932V395.998ZM561.918 451.225H530.33L572.289 328.76C575.978 317.924 586.097 310.679 597.509 310.679C608.921 310.679 618.978 317.956 622.729 328.76L664.595 451.225H633.006L598.077 342.805H597.005L562.012 451.225H561.981H561.918Z" fill="black"/>
<path d="M676.858 451.225V345.792H704.978V364.19H706.05C707.942 357.613 711.157 352.687 715.665 349.319C720.173 345.919 725.312 344.267 731.207 344.267C732.657 344.267 734.233 344.362 735.904 344.553C737.575 344.775 739.057 344.966 740.349 345.315V371.276C738.962 370.863 737.102 370.482 734.706 370.196C732.31 369.846 730.104 369.687 728.118 369.687C723.862 369.687 720.047 370.609 716.706 372.484C713.332 374.327 710.747 376.901 708.793 380.205C706.838 383.51 705.892 387.323 705.892 391.613V451.225H676.889H676.858Z" fill="black"/>
<path d="M767.492 320.562H796.527V418.845C796.527 421.578 796.937 423.643 797.756 425.105C798.576 426.598 799.711 427.647 801.192 428.251C802.674 428.823 804.377 429.14 806.331 429.14C807.687 429.14 809.074 429.013 810.429 428.759C811.785 428.505 812.825 428.282 813.55 428.187L818.121 449.954C816.671 450.43 814.654 450.971 811.974 451.574C809.357 452.21 806.142 452.591 802.359 452.718C795.36 453.004 789.244 452.051 783.98 449.922C778.715 447.793 774.648 444.457 771.748 439.881C768.848 435.369 767.398 429.649 767.429 422.722V320.562H767.461H767.492ZM816.167 367.781H753.211V345.792H816.167V367.781Z" fill="black"/>
<path d="M834.956 345.76H863.959V451.193H834.956V345.76ZM849.552 332.192C845.233 332.192 841.544 330.762 838.486 327.902C835.429 325.01 833.884 321.547 833.884 317.448C833.884 313.348 835.429 309.885 838.518 306.993C841.576 304.07 845.264 302.64 849.552 302.64C853.839 302.64 857.559 304.07 860.617 306.961C863.675 309.853 865.22 313.317 865.22 317.416C865.22 321.515 863.675 324.978 860.617 327.87C857.559 330.762 853.871 332.223 849.552 332.223" fill="black"/>
<path d="M970.324 375.852L943.748 377.473C943.307 375.185 942.298 373.119 940.817 371.244C939.335 369.37 937.38 367.908 934.921 366.764C932.463 365.62 929.625 365.08 926.252 365.08C921.776 365.08 917.961 366.033 914.903 367.908C911.782 369.783 910.269 372.325 910.269 375.471C910.269 377.981 911.278 380.11 913.264 381.858C915.25 383.605 918.686 385.003 923.541 386.052L942.487 389.897C952.638 391.994 960.236 395.362 965.248 400.065C970.229 404.736 972.751 410.837 972.751 418.464C972.751 425.359 970.765 431.428 966.73 436.64C962.695 441.851 957.241 445.918 950.274 448.842C943.307 451.733 935.268 453.195 926.189 453.195C912.349 453.195 901.316 450.272 893.151 444.457C884.986 438.641 880.162 430.666 878.775 420.593L907.306 419.099C908.188 423.357 910.237 426.567 913.579 428.791C916.889 431.015 921.113 432.127 926.315 432.127C931.517 432.127 935.489 431.111 938.578 429.172C941.699 427.202 943.275 424.628 943.307 421.451C943.275 418.813 942.141 416.589 939.997 414.873C937.79 413.157 934.448 411.822 929.909 410.901L911.782 407.278C901.599 405.213 894.002 401.622 889.021 396.57C884.04 391.518 881.55 385.035 881.55 377.155C881.55 370.386 883.378 364.54 887.035 359.646C890.692 354.753 895.83 350.939 902.482 348.334C909.102 345.665 916.952 344.362 925.874 344.362C939.114 344.362 949.518 347.158 957.084 352.814C964.681 358.47 969.095 366.097 970.387 375.788V375.884L970.324 375.852Z" fill="black"/>
<path d="M991.004 345.76H1020.01V451.193H991.004V345.76ZM1005.6 332.192C1001.28 332.192 997.593 330.762 994.535 327.902C991.477 325.01 989.933 321.547 989.933 317.448C989.933 313.348 991.477 309.885 994.567 306.993C997.625 304.07 1001.34 302.64 1005.6 302.64C1009.86 302.64 1013.61 304.07 1016.67 306.961C1019.72 309.853 1021.27 313.317 1021.27 317.416C1021.27 321.515 1019.76 324.978 1016.67 327.87C1013.61 330.762 1009.92 332.223 1005.6 332.223" fill="black"/>
<path d="M1090.91 427.742C1095.6 427.742 1099.51 426.566 1102.79 424.183C1106.04 421.832 1108.56 418.464 1110.3 414.015C1112.03 409.598 1112.91 404.323 1112.91 398.127C1112.91 391.931 1112.03 386.592 1110.36 382.048C1108.66 377.504 1106.13 373.945 1102.86 371.435C1099.58 368.925 1095.6 367.685 1090.91 367.685C1086.21 367.685 1082.11 368.988 1078.83 371.562C1075.55 374.168 1073.06 377.758 1071.42 382.302C1069.72 386.846 1068.9 392.153 1068.9 398.127C1068.9 404.101 1069.79 409.439 1071.49 413.888C1073.19 418.305 1075.65 421.705 1078.9 424.12C1082.14 426.503 1086.15 427.71 1090.91 427.71M1090.28 492.883C1080.85 492.883 1072.81 491.58 1066.16 489.007C1059.45 486.401 1054.15 482.906 1050.21 478.489C1046.27 474.072 1043.68 469.051 1042.48 463.522L1069.31 459.9C1070.13 461.997 1071.42 463.967 1073.22 465.778C1075.02 467.621 1077.32 469.083 1080.25 470.195C1083.18 471.339 1086.78 471.879 1091 471.879C1097.31 471.879 1102.54 470.322 1106.64 467.24C1110.74 464.158 1112.82 459.01 1112.82 451.797V432.509H1111.62C1110.33 435.432 1108.44 438.197 1105.88 440.834C1103.36 443.471 1100.08 445.569 1096.08 447.221C1092.11 448.842 1087.34 449.7 1081.76 449.7C1073.92 449.7 1066.76 447.856 1060.33 444.17C1053.9 440.484 1048.79 434.86 1044.98 427.202C1041.16 419.544 1039.3 409.948 1039.3 398.286C1039.3 386.624 1041.22 376.36 1045.1 368.353C1048.95 360.345 1054.09 354.371 1060.52 350.399C1066.95 346.427 1073.98 344.425 1081.64 344.425C1087.5 344.425 1092.39 345.442 1096.36 347.38C1100.3 349.382 1103.49 351.861 1105.94 354.784C1108.37 357.739 1110.26 360.631 1111.59 363.459H1112.66V345.76H1141.47V452.21C1141.47 461.202 1139.27 468.67 1134.92 474.739C1130.57 480.808 1124.54 485.321 1116.85 488.371C1109.13 491.422 1100.3 492.915 1090.31 492.915H1090.28V492.883Z" fill="black"/>
<path d="M1193.58 390.247V451.193H1164.55V310.647H1192.73V364.381H1193.96C1196.33 358.153 1200.14 353.259 1205.41 349.7C1210.67 346.141 1217.26 344.394 1225.2 344.394C1232.45 344.394 1238.79 345.982 1244.21 349.16C1249.64 352.338 1253.89 356.882 1256.92 362.824C1259.94 368.766 1261.43 375.82 1261.39 384.05V451.161H1232.36V389.23C1232.39 382.747 1230.78 377.695 1227.5 374.073C1224.23 370.45 1219.62 368.639 1213.7 368.639C1209.76 368.639 1206.29 369.465 1203.26 371.181C1200.24 372.897 1197.87 375.312 1196.17 378.585C1194.47 381.794 1193.62 385.703 1193.55 390.215H1193.52L1193.58 390.247Z" fill="black"/>
<path d="M1287.4 320.562H1316.41V418.845C1316.41 421.578 1316.82 423.643 1317.63 425.105C1318.45 426.598 1319.59 427.647 1321.07 428.251C1322.55 428.823 1324.26 429.14 1326.21 429.14C1327.6 429.14 1328.95 429.013 1330.31 428.759C1331.66 428.505 1332.7 428.282 1333.43 428.187L1338 449.954C1336.55 450.43 1334.5 450.971 1331.85 451.574C1329.24 452.21 1326.02 452.591 1322.24 452.718C1315.24 453.004 1309.15 452.051 1303.86 449.922C1298.59 447.793 1294.53 444.457 1291.63 439.881C1288.73 435.369 1287.28 429.649 1287.31 422.722V320.562H1287.37H1287.4ZM1336.08 367.781H1273.12V345.792H1336.08V367.781Z" fill="black"/>
<path d="M280.904 484.526C263.88 484.526 246.825 478.012 233.868 464.92L122.396 352.56L188.693 285.735C239.858 234.162 323.21 234.035 374.533 285.417L486.51 397.65L464.032 420.466L352.056 308.233C313.185 269.275 250.009 269.402 211.233 308.487L167.508 352.56L256.44 442.137C269.965 455.769 291.969 455.769 305.493 442.137L327.182 420.275L349.723 442.995L328.034 464.857C315.045 477.949 298.022 484.463 280.998 484.463H280.967L280.904 484.526Z" fill="black"/>
<path d="M281.786 549H281.881C317.063 549 350.101 535.178 374.974 510.043L440.893 443.472L328.885 330.571C302.94 304.42 260.696 304.42 234.751 330.571L213.692 351.798L236.233 374.518L257.291 353.291C263.849 346.682 272.55 343.059 281.786 343.059C291.023 343.059 299.724 346.682 306.281 353.291L395.781 443.504L352.371 487.323C333.55 506.325 308.457 516.811 281.818 516.811H281.786C255.179 516.811 230.148 506.357 211.265 487.355L99.5404 374.804L77 397.524L188.756 510.138C213.629 535.209 246.668 549 281.818 549H281.786Z" fill="black"/>
</g>
<defs>
<clipPath id="clip0_94_5836">
<rect width="1261" height="302" fill="white" transform="translate(77 247)"/>
</clipPath>
</defs>
</svg>
