<?xml version="1.0" encoding="UTF-8"?> <svg xmlns="http://www.w3.org/2000/svg" width="1415" height="796" viewBox="0 0 1415 796" fill="none"><path d="M439.203 320.603L284.369 165.77L129.535 320.603L206.972 398L129.535 475.397L284.369 630.231L439.203 475.397L361.766 398L439.203 320.603ZM284.369 613.435L146.491 475.397L215.43 406.458L284.369 475.397H422.247L284.369 613.435ZM284.369 458.601L146.491 320.603L284.369 182.565L422.247 320.484L284.369 458.601Z" fill="black"></path><path d="M519.433 451.7L540.338 426.646C554.82 438.615 569.981 446.155 588.213 446.155C602.695 446.155 611.432 440.41 611.432 430.995V430.556C611.432 421.579 605.926 416.991 579.037 410.089C546.642 401.831 525.697 392.855 525.697 360.898V360.46C525.697 331.256 549.155 311.947 582.029 311.947C603.753 311.581 624.921 318.821 641.872 332.413L623.48 359.063C609.238 349.209 595.234 343.105 581.67 343.105C568.105 343.105 561.004 349.289 561.004 357.108V357.587C561.004 368.159 567.906 371.59 595.673 378.732C628.308 387.229 646.699 398.959 646.699 426.965V427.444C646.699 459.36 622.363 477.313 587.654 477.313C562.542 477.432 538.262 468.316 519.433 451.7Z" fill="black"></path><path d="M662.617 414.236V413.957C662.617 378.569 691.103 349.845 729.482 349.845C767.861 349.845 795.908 378.131 795.908 413.677V413.957C795.908 449.344 767.382 478.068 729.043 478.068C690.704 478.068 662.617 449.623 662.617 414.236ZM761.438 414.236V413.957C761.438 395.804 748.312 379.966 729.043 379.966C709.095 379.966 697.127 395.365 697.127 413.518V413.957C697.127 432.109 710.212 447.987 729.522 447.987C749.469 447.788 761.438 432.388 761.438 414.236Z" fill="black"></path><path d="M810.83 414.24V413.961C810.71 405.468 812.303 397.037 815.512 389.173C818.722 381.309 823.483 374.173 829.511 368.189C835.54 362.205 842.712 357.497 850.599 354.346C858.487 351.195 866.929 349.666 875.421 349.849C898.6 349.849 913.082 357.828 924.572 370.554L903.068 393.335C895.089 385.036 887.429 379.77 875.141 379.77C857.667 379.77 845.26 395.17 845.26 413.322V413.961C845.26 432.831 857.228 447.991 876.498 447.991C888.227 447.991 896.445 442.925 904.784 434.866L925.25 455.571C919.152 462.859 911.464 468.652 902.777 472.504C894.091 476.357 884.637 478.166 875.141 477.793C866.707 477.986 858.32 476.48 850.48 473.364C842.64 470.249 835.507 465.587 829.506 459.657C823.505 453.727 818.759 446.649 815.551 438.847C812.342 431.044 810.737 422.676 810.83 414.24Z" fill="black"></path><path d="M942.723 431.713V351.922H977.671V420.622C977.671 437.178 985.651 445.676 998.816 445.676C1011.98 445.676 1020.64 437.178 1020.64 420.622V351.962H1055.59V475.119H1020.64V457.844C1012.66 468.217 1002.25 477.792 984.733 477.792C958.123 477.433 942.723 459.958 942.723 431.713Z" fill="black"></path><path d="M1082.6 351.962H1117.51V376.777C1124.65 359.782 1136.14 348.85 1156.8 349.648V386.033H1154.97C1131.75 386.033 1117.51 400.036 1117.51 429.479V474.96H1082.6V351.962Z" fill="black"></path><path d="M1164.74 414.236V413.957C1164.74 378.809 1189.8 349.845 1225.62 349.845C1266.75 349.845 1285.46 381.761 1285.46 416.709C1285.46 419.502 1285.22 422.694 1284.99 425.925H1199.45C1200.54 432.979 1204.23 439.369 1209.8 443.837C1215.37 448.304 1222.41 450.525 1229.53 450.062C1235.11 450.128 1240.65 449.039 1245.79 446.862C1250.94 444.686 1255.57 441.469 1259.41 437.415L1279.36 455.089C1273.32 462.516 1265.63 468.435 1256.91 472.375C1248.18 476.316 1238.66 478.169 1229.09 477.789C1192.07 477.789 1164.74 451.897 1164.74 414.236ZM1251.59 403.903C1249.52 388.264 1240.34 377.692 1225.62 377.692C1210.9 377.692 1201.68 388.025 1198.97 403.903H1251.59Z" fill="black"></path></svg> 